<?xml version="1.0" encoding="UTF-8" standalone="no"?>
<!DOCTYPE svg PUBLIC "-//W3C//DTD SVG 1.1//EN" "http://www.w3.org/Graphics/SVG/1.1/DTD/svg11.dtd">
<svg width="100%" height="100%" viewBox="0 0 1921 961" version="1.1" xmlns="http://www.w3.org/2000/svg" xmlns:xlink="http://www.w3.org/1999/xlink" xml:space="preserve" xmlns:serif="http://www.serif.com/" style="fill-rule:evenodd;clip-rule:evenodd;stroke-linejoin:round;stroke-miterlimit:2;">
    <g transform="matrix(1,0,0,1,3007,-2689)">
        <g id="The-FISE-Experience-in-Sports-Land-will-be-available-soon--But-" serif:id="The FISE Experience in Sports Land will be available soon! But " transform="matrix(1,0,0,1,-2647.12,2882.41)">
            <text x="19.235px" y="14.8px" style="font-family:'Poppins-Regular', 'Poppins';font-size:20px;fill:rgb(17,17,17);">T<tspan x="31.255px 45.255px 58.855px 65.395px 76.675px 82.795px 95.735px 107.195px 113.735px 125.195px 135.975px 150.695px 164.295px 172.955px 179.075px 192.675px 206.675px 220.015px 233.615px 240.155px 246.275px 260.275px 266.815px 279.755px 294.475px 308.475px 317.135px 325.615px 337.255px 343.795px 353.635px 368.355px 382.355px 397.075px 403.615px 421.215px 427.335px 433.455px 439.575px 446.115px 460.835px 474.435px 480.975px 495.695px 508.115px 522.835px 528.955px 535.075px 549.795px 564.515px 570.635px 584.235px 590.775px 602.415px 616.415px 630.415px 644.415px 651.575px 658.115px 671.575px 685.575px 694.055px 700.595px 713.055px 727.055px 741.055px 747.595px 760.935px 775.655px 789.655px 796.195px 810.915px 824.915px 833.575px 846.915px 860.915px 875.635px 887.275px 900.875px 907.415px 921.415px 935.415px 944.075px 950.615px 965.875px 977.155px 989.175px 1000.82px 1007.36px 1015.13px 1023.8px 1037.8px 1059.6px 1066.13px 1074.62px 1088.62px 1102.21px 1108.76px 1122.12px 1136.12px 1142.24px 1148.36px 1154.48px 1168.48px " y="14.8px 14.8px 14.8px 14.8px 14.8px 14.8px 14.8px 14.8px 14.8px 14.8px 14.8px 14.8px 14.8px 14.8px 14.8px 14.8px 14.8px 14.8px 14.8px 14.8px 14.8px 14.8px 14.8px 14.8px 14.8px 14.8px 14.8px 14.8px 14.8px 14.8px 14.8px 14.8px 14.8px 14.8px 14.8px 14.8px 14.8px 14.8px 14.8px 14.8px 14.8px 14.8px 14.8px 14.8px 14.8px 14.8px 14.8px 14.8px 14.8px 14.8px 14.8px 14.8px 14.8px 14.8px 14.8px 14.8px 14.8px 14.8px 14.8px 14.8px 14.8px 14.8px 14.8px 14.8px 14.8px 14.8px 14.8px 14.8px 14.8px 14.8px 14.8px 14.8px 14.8px 14.8px 14.8px 14.8px 14.8px 14.8px 14.8px 14.8px 14.8px 14.8px 14.8px 14.8px 14.8px 14.8px 14.8px 14.8px 14.8px 14.8px 14.8px 14.8px 14.8px 14.8px 14.8px 14.8px 14.8px 14.8px 14.8px 14.8px 14.8px 14.8px 14.8px 14.8px ">he FISE Experience in Sports Land will be available soon! But you can purchase our NFTs from the Rolling</tspan></text>
            <text x="18.835px" y="40.8px" style="font-family:'Poppins-Regular', 'Poppins';font-size:20px;fill:rgb(17,17,17);">w<tspan x="36.435px 42.555px 51.035px 65.035px 71.575px 82.855px 88.975px 101.915px 113.375px 119.915px 133.255px 147.255px 153.375px 159.495px 173.095px 186.435px 194.915px 201.035px 215.035px 229.035px 235.575px 244.235px 250.355px 265.075px 279.075px 287.555px 294.095px 308.095px 322.095px 339.695px 346.855px 353.395px 368.075px 382.075px 396.795px 403.335px 416.935px 429.355px 442.955px 456.955px 463.495px 478.215px 491.815px 500.295px 508.775px 522.375px 531.035px 536.195px 542.735px 560.335px 573.935px 579.515px 585.635px 591.755px 598.295px 613.015px 626.615px 633.155px 647.875px 653.995px 666.415px 672.535px 686.535px 701.255px 707.795px 722.515px 740.115px 754.835px 767.295px 773.835px 787.435px 798.215px 811.555px 817.675px 831.675px 843.315px 849.435px 861.855px 875.455px 881.995px 890.655px 904.255px 921.855px 936.575px 945.235px 959.955px 971.595px 978.135px 986.615px 1000.62px 1007.15px 1021.15px 1035.15px 1043.82px 1050.36px 1065.62px 1076.89px 1088.91px 1095.45px 1109.45px 1123.45px 1129.58px 1144.3px 1157.89px 1166.56px 1178.19px " y="40.8px 40.8px 40.8px 40.8px 40.8px 40.8px 40.8px 40.8px 40.8px 40.8px 40.8px 40.8px 40.8px 40.8px 40.8px 40.8px 40.8px 40.8px 40.8px 40.8px 40.8px 40.8px 40.8px 40.8px 40.8px 40.8px 40.8px 40.8px 40.8px 40.8px 40.8px 40.8px 40.8px 40.8px 40.8px 40.8px 40.8px 40.8px 40.8px 40.8px 40.8px 40.8px 40.8px 40.8px 40.8px 40.8px 40.8px 40.8px 40.8px 40.8px 40.8px 40.8px 40.8px 40.8px 40.8px 40.8px 40.8px 40.8px 40.8px 40.8px 40.8px 40.8px 40.8px 40.8px 40.8px 40.8px 40.8px 40.8px 40.8px 40.8px 40.8px 40.8px 40.8px 40.8px 40.8px 40.8px 40.8px 40.8px 40.8px 40.8px 40.8px 40.8px 40.8px 40.8px 40.8px 40.8px 40.8px 40.8px 40.8px 40.8px 40.8px 40.8px 40.8px 40.8px 40.8px 40.8px 40.8px 40.8px 40.8px 40.8px 40.8px 40.8px 40.8px 40.8px 40.8px 40.8px ">ith FISE collection right now! And even better, we’ll be giving away exclusive rewards to our NFT holders.</tspan></text>
        </g>
        <g id="SPORTS-ARE-ALWAYS-REWARDING.-SPECIALLY-THIS-TIME-" serif:id="SPORTS ARE ALWAYS REWARDING. SPECIALLY THIS TIME!" transform="matrix(1,0,0,1,-2038.12,2796.24)">
            <text x="-412.56px" y="0px" style="font-family:'Poppins-Bold', 'Poppins';font-weight:700;font-size:48px;fill:rgb(17,17,17);">SPORTS ARE ALWAYS REWARDING.</text>
            <text x="-254.208px" y="45px" style="font-family:'Poppins-Bold', 'Poppins';font-weight:700;font-size:48px;fill:rgb(17,17,17);">SPECIALLY THIS TIME!</text>
        </g>
        <g transform="matrix(1,0,0,1,-3007,992)">
            <rect x="0" y="1697" width="1921" height="961" style="fill:none;"/>
        </g>
    </g>
</svg>
